<?xml version="1.0" encoding="iso-8859-1"?>
<!-- Generator: Adobe Illustrator 21.0.0, SVG Export Plug-In . SVG Version: 6.00 Build 0)  -->
<svg version="1.1" id="Capa_1" xmlns="http://www.w3.org/2000/svg" xmlns:xlink="http://www.w3.org/1999/xlink" x="0px" y="0px"
	 viewBox="0 0 512 512" style="enable-background:new 0 0 512 512;" xml:space="preserve">
<g>
	<g>
		<g>
			<path d="M228.571,365.714h45.714c10.099,0,18.286-8.187,18.286-18.286V201.143c0-10.099-8.187-18.286-18.286-18.286h-45.714
				c-10.099,0-18.286,8.187-18.286,18.286v146.286C210.286,357.528,218.473,365.714,228.571,365.714z"/>
			<path d="M0,484.571C0,499.72,12.28,512,27.429,512h457.143C499.72,512,512,499.72,512,484.571V73.143H0V484.571z
				 M137.143,374.857c0,5.049-4.093,9.143-9.143,9.143s-9.143-4.093-9.143-9.143v-27.429c0-5.049,4.093-9.143,9.143-9.143
				s9.143,4.093,9.143,9.143V374.857z M310.857,484.571H201.143c-5.049,0-9.143-4.093-9.143-9.143s4.093-9.143,9.143-9.143h109.714
				c5.049,0,9.143,4.093,9.143,9.143S315.907,484.571,310.857,484.571z M347.429,448H164.571c-5.049,0-9.143-4.093-9.143-9.143
				c0-5.049,4.093-9.143,9.143-9.143h182.857c5.049,0,9.143,4.093,9.143,9.143C356.571,443.907,352.478,448,347.429,448z
				 M438.857,374.857c0,5.049-4.093,9.143-9.143,9.143s-9.143-4.093-9.143-9.143v-27.429c0-5.049,4.093-9.143,9.143-9.143
				s9.143,4.093,9.143,9.143V374.857z M330.679,305.783l91.429-137.143c0.165-0.247,0.43-0.384,0.613-0.613
				c0.392-0.481,0.833-0.919,1.317-1.307c0.44-0.37,0.918-0.691,1.426-0.96c0.501-0.268,1.028-0.486,1.573-0.649
				c0.596-0.183,1.208-0.305,1.829-0.366c0.293,0,0.558-0.174,0.859-0.174c0.277,0.041,0.552,0.096,0.823,0.165
				c0.598,0.06,1.19,0.18,1.765,0.357c0.6,0.172,1.179,0.408,1.728,0.704c0.247,0.137,0.521,0.155,0.759,0.311
				c0.238,0.155,0.375,0.421,0.603,0.613c0.489,0.393,0.933,0.837,1.326,1.326c0.349,0.439,0.655,0.911,0.914,1.408
				c0.267,0.502,0.484,1.029,0.649,1.573c0.189,0.594,0.311,1.207,0.366,1.829c0,0.302,0.174,0.549,0.174,0.85v100.581
				c0,5.049-4.093,9.143-9.143,9.143c-5.049,0-9.143-4.093-9.143-9.143v-70.4l-65.179,97.829h110.921
				c5.049,0,9.143,4.093,9.143,9.143c0,5.049-4.093,9.143-9.143,9.143h-128c-3.373,0-6.472-1.856-8.063-4.83
				C328.632,312.197,328.807,308.588,330.679,305.783z M192,201.143c0-20.198,16.374-36.571,36.571-36.571h45.714
				c20.198,0,36.571,16.374,36.571,36.571v146.286c0,20.198-16.374,36.571-36.571,36.571h-45.714
				C208.374,384,192,367.626,192,347.429V201.143z M28.965,305.783l91.429-137.143c0.165-0.247,0.43-0.384,0.613-0.613
				c0.394-0.476,0.831-0.914,1.307-1.307c0.445-0.37,0.926-0.694,1.435-0.969c0.501-0.26,1.024-0.474,1.563-0.64
				c0.596-0.181,1.209-0.304,1.829-0.366c0.293,0,0.558-0.174,0.859-0.174c0.277,0.041,0.552,0.096,0.823,0.165
				c0.598,0.06,1.19,0.18,1.765,0.357c0.6,0.172,1.179,0.408,1.728,0.704c0.247,0.137,0.521,0.155,0.759,0.311
				c0.238,0.155,0.375,0.421,0.603,0.613c0.489,0.393,0.933,0.837,1.326,1.326c0.349,0.439,0.655,0.911,0.914,1.408
				c0.267,0.502,0.484,1.029,0.649,1.573c0.189,0.594,0.311,1.207,0.366,1.829c0,0.302,0.174,0.549,0.174,0.85v100.581
				c0,5.049-4.093,9.143-9.143,9.143s-9.143-4.093-9.143-9.143v-70.4l-65.17,97.829h110.921c5.049,0,9.143,4.093,9.143,9.143
				c0,5.049-4.093,9.143-9.143,9.143h-128c-3.373,0-6.472-1.856-8.063-4.83C26.917,312.197,27.093,308.588,28.965,305.783z"/>
			<path d="M484.571,0H27.429C12.28,0,0,12.28,0,27.429v27.429h512V27.429C512,12.28,499.72,0,484.571,0z M45.714,36.571h-9.143
				c-5.049,0-9.143-4.093-9.143-9.143c0-5.049,4.093-9.143,9.143-9.143h9.143c5.049,0,9.143,4.093,9.143,9.143
				C54.857,32.478,50.764,36.571,45.714,36.571z M90.697,30.903c-0.466,1.106-1.115,2.126-1.92,3.017
				c-0.891,0.805-1.911,1.454-3.017,1.92c-3.402,1.458-7.349,0.697-9.966-1.92c-0.805-0.891-1.454-1.911-1.92-3.017
				c-0.976-2.213-0.976-4.735,0-6.949c0.464-1.108,1.113-2.128,1.92-3.017c3.666-3.383,9.316-3.383,12.983,0
				c0.807,0.889,1.456,1.91,1.92,3.017C91.672,26.168,91.672,28.689,90.697,30.903z M125.349,33.92
				c-0.876,0.825-1.899,1.476-3.017,1.92c-2.213,0.976-4.735,0.976-6.949,0c-1.108-0.464-2.128-1.113-3.017-1.92
				c-2.617-2.617-3.378-6.564-1.92-9.966c0.464-1.108,1.113-2.128,1.92-3.017c3.666-3.383,9.316-3.383,12.983,0
				c0.807,0.889,1.456,1.91,1.92,3.017c0.508,1.086,0.758,2.275,0.731,3.474C128.02,29.86,127.065,32.198,125.349,33.92z
				 M475.429,36.571H164.571c-5.049,0-9.143-4.093-9.143-9.143c0-5.049,4.093-9.143,9.143-9.143h310.857
				c5.049,0,9.143,4.093,9.143,9.143C484.571,32.478,480.478,36.571,475.429,36.571z"/>
		</g>
	</g>
</g>
<g>
</g>
<g>
</g>
<g>
</g>
<g>
</g>
<g>
</g>
<g>
</g>
<g>
</g>
<g>
</g>
<g>
</g>
<g>
</g>
<g>
</g>
<g>
</g>
<g>
</g>
<g>
</g>
<g>
</g>
</svg>
